<?xml version="1.0" encoding="UTF-8"?>
<svg id="Layer_1" data-name="Layer 1" xmlns="http://www.w3.org/2000/svg" viewBox="0 0 1082.01375 1080">
  <path d="M856.1411,241.07178c61.36744,67.24419,53.6797,175.43709,54.65552,261.21212.74751,65.70585,2.74971,138.33718-3.52909,203.919-12.28286,128.29406-85.19185,193.80537-212.11959,201.28141-92.98604,5.47688-207.42508,6.2935-300.65553,1.93686-139.11255-6.5007-207.80439-84.17523-219.14137-219.31559-6.13608-73.14395-5.73537-157.10312-3.66573-230.92007,3.40602-121.48093,12.38513-235.67872,148.22574-274.12334,85.88621-24.30689,244.12728-17.13072,335.86504-12.9622,76.93622,3.49594,145.42899,8.77492,200.36501,68.97181ZM792.07794,285.46719c-41.27596-35.02353-93.03025-31.16254-143.4603-32.83457-83.10729-2.75545-171.11437-4.29007-254.12518-.1475-136.24831,6.79933-142.52171,81.99082-145.85372,197.75231-2.32843,80.89502-5.96547,195.63997,7.44443,273.6727,15.78712,91.86588,103.79789,97.56382,179.57031,99.60959,83.45142,2.2531,184.34092,4.44064,266.70369-1.88614,142.11024-10.91634,129.4011-118.22645,131.4856-228.22699,1.04493-55.14166,2.17135-110.98525.14761-166.43417-1.72527-47.27111-3.4656-108.88229-41.91245-141.50525Z"/>
  <path d="M527.53306,364.05054c128.97687-9.59505,222.63613,116.96347,185.20184,238.89008-41.82881,136.23992-217.7065,174.20884-310.0624,63.86095-95.11638-113.64613-23.54104-291.71091,124.86057-302.75103ZM609.46,468.06611c-112.93376-97.82174-245.46116,83.61955-129.407,166.09532,108.8186,77.33371,226.60117-81.907,129.407-166.09532Z"/>
  <path d="M707.4932,396.87832c-39.15141-39.24283,16.54292-98.24026,56.64612-62.90975,43.47585,38.30177-17.12234,102.52582-56.64612,62.90975Z"/>
</svg>