<svg width="118" height="78" viewBox="0 0 118 78" fill="none" xmlns="http://www.w3.org/2000/svg">
<path d="M2.4895 17.6701C2.4895 8.52739 9.45595 1.76279 18.2254 1.76279C23.9208 1.76279 26.6253 3.69059 27.6905 3.69059C28.2646 3.69059 28.6751 3.32089 28.9206 2.17343H29.2889L30.3144 11.3967H29.9858C27.3631 5.20649 22.6497 2.50091 18.2254 2.50091C12.1182 2.50091 7.44837 7.62552 7.44837 15.7832C7.44837 26.4021 13.4302 31.6905 19.2906 31.6905C22.4042 31.6905 26.0102 30.4599 26.0102 28.2877V21.564C26.0102 19.8831 25.4374 19.4328 21.6677 19.2678V18.9403H33.5918V19.2678C30.9282 19.4328 30.3553 19.8422 30.3553 21.5231V27.8361C30.3553 28.9427 30.8054 29.1077 31.9537 28.6971L32.0765 28.9849C28.7978 30.9524 22.9784 32.4273 18.4709 32.4273C9.49687 32.4273 2.4895 27.4677 2.4895 17.6701Z" fill="black"/>
<path d="M45.3599 28.8608C43.2283 31.198 41.3434 32.3455 39.2527 32.3455C36.795 32.3455 35.033 30.7067 35.033 28.3287C35.033 26.4431 36.0981 25.0896 40.5238 23.7784L45.3599 22.3431V18.4069C45.3599 16.3167 44.498 14.3901 42.1222 14.3901C40.6874 14.3901 38.0648 15.4148 38.0648 16.2757C38.0648 16.7682 38.7617 17.7519 38.7617 18.6947C38.7617 19.6375 38.0239 20.1697 37.1633 20.1697C36.3436 20.1697 35.6058 19.7604 35.6058 18.8176C35.6058 17.711 36.5904 16.3576 38.0239 15.0464C40.1146 13.1595 42.2859 12.0939 44.3344 12.0939C47.2038 12.0939 49.2523 13.8976 49.2523 17.4232V28.5333C49.2523 29.6399 49.7024 30.378 50.6052 30.378C51.5054 30.378 52.2036 29.7217 52.7355 28.9427L53.022 29.1486C52.2445 30.5417 50.8098 32.3455 48.3099 32.3455C45.8509 32.3455 45.4008 30.5008 45.3599 28.8608ZM41.713 30.0914C42.9418 30.0914 44.1298 29.3533 45.3599 28.2058V22.9175L41.8767 24.065C39.91 24.7212 38.8845 25.5821 38.8845 27.1799C38.8845 29.0258 40.0737 30.0914 41.713 30.0914Z" fill="black"/>
<path d="M57.4922 30.5826C56.959 31.0752 56.303 31.5664 55.4846 32.0179H55.156C55.4846 30.378 55.5664 27.7133 55.5664 24.4334V7.74832C55.5664 3.9362 55.0741 2.87061 53.2302 2.41903V2.17342C55.3618 1.80372 57.5331 1.06688 59.4179 0H59.6635C59.4179 1.63997 59.4179 4.42742 59.4179 7.70739V15.0464C61.0982 13.4064 63.3513 12.0939 65.8934 12.0939C70.4405 12.0939 73.9237 15.9482 73.9237 21.564C73.9237 28.0817 69.3357 32.2636 63.639 32.2636C61.5892 32.2636 59.4998 31.7723 57.4922 30.5826ZM64.0085 31.6086C67.3677 31.6086 69.8267 28.2468 69.8267 23.245C69.8267 17.67 67.2859 14.3082 63.474 14.3082C62.1633 14.3082 60.8117 14.7176 59.4179 15.6194V27.3858C59.4179 29.4761 61.18 31.6086 64.0085 31.6086Z" fill="black"/>
<path d="M79.788 30.5826C79.2561 31.0752 78.6001 31.5664 77.7804 32.0179H77.4531C77.7804 30.378 77.8623 27.7133 77.8623 24.4334V7.74832C77.8623 3.9362 77.3712 2.87061 75.5273 2.41903V2.17342C77.6577 1.80372 79.829 1.06688 81.7138 0H81.9606C81.7138 1.63997 81.7138 4.42742 81.7138 7.70739V15.0464C83.394 13.4064 85.6484 12.0939 88.1892 12.0939C92.7376 12.0939 96.2208 15.9482 96.2208 21.564C96.2208 28.0817 91.6315 32.2636 85.9361 32.2636C83.8863 32.2636 81.7956 31.7723 79.788 30.5826ZM86.3044 31.6086C89.6648 31.6086 92.1225 28.2468 92.1225 23.245C92.1225 17.67 89.583 14.3082 85.7711 14.3082C84.4604 14.3082 83.1076 14.7176 81.7138 15.6194V27.3858C81.7138 29.4761 83.4758 31.6086 86.3044 31.6086Z" fill="black"/>
<path d="M97.9049 40.9956C97.9049 39.9709 98.644 39.1919 99.791 39.1919C101.02 39.1919 101.758 40.3406 102.414 40.3406C103.315 40.3406 104.012 39.5207 104.994 36.9788L106.633 32.6333L99.8319 16.3985C98.644 13.6929 97.9049 12.9139 96.2668 12.6683V12.3395H105.447V12.6683C102.782 12.8729 102.823 13.6929 103.438 15.1692L108.56 27.6315L112.7 16.685C113.477 14.5948 113.191 12.9139 110.198 12.6682V12.3395H117.289V12.6682C115.813 12.9139 114.462 14.1035 113.436 16.8091L105.692 37.1835C104.339 40.7091 102.946 43.0872 100.529 43.0872C98.7258 43.0872 97.9049 42.1034 97.9049 40.9956Z" fill="black"/>
<path d="M21.063 63.4462L18.0721 55.2475H8.2375L5.98312 61.3559C4.71335 64.7164 5.40897 66.3564 9.38451 66.6033V66.9308H0V66.6033C2.0907 66.3564 3.48323 65.1271 5.0407 61.109L12.4995 40.8984L11.5558 38.4794C12.9905 38.1519 14.5889 37.3728 15.4495 36.2663H15.7359C16.1054 37.7016 16.31 38.3156 17.3343 40.9803L24.9976 61.5196C26.5551 65.5364 27.2098 66.3564 29.8734 66.6033V66.9308H18.3176V66.6033C21.6781 66.3974 21.8009 65.4955 21.063 63.4462ZM17.7448 54.4276L13.1132 41.8002L8.52393 54.4276H17.7448Z" fill="black"/>
<path d="M35.6704 65.2493C35.1372 65.7418 34.4812 66.2331 33.6615 66.6846H33.3342C33.6615 65.0446 33.7434 62.38 33.7434 59.1V42.415C33.7434 38.6029 33.2524 37.5373 31.4084 37.0857V36.8401C33.5388 36.4704 35.7113 35.7335 37.5962 34.6667H37.8417C37.5962 36.3066 37.5962 39.0941 37.5962 42.3741V49.713C39.2764 48.0731 41.5295 46.7606 44.0703 46.7606C48.6187 46.7606 52.1019 50.6149 52.1019 56.2307C52.1019 62.7497 47.5126 66.9302 41.8172 66.9302C39.7674 66.9302 37.678 66.439 35.6704 65.2493ZM42.1855 66.2753C45.5459 66.2753 48.0049 62.9134 48.0049 57.9116C48.0049 52.3367 45.4641 48.9749 41.6522 48.9749C40.3416 48.9749 38.9887 49.3843 37.5962 50.2861V62.0525C37.5962 64.1428 39.3582 66.2753 42.1855 66.2753Z" fill="black"/>
<path d="M58.0818 65.4955C57.5486 65.988 56.8939 66.4792 56.0742 66.9308H55.7456C56.0742 65.2908 56.156 62.6262 56.156 59.3462V42.6612C56.156 38.849 55.6637 37.7834 53.8198 37.3319V37.0863C55.9514 36.7166 58.1227 35.9797 60.0075 34.9128H60.2543C60.0075 36.5528 60.0075 39.3403 60.0075 42.6202V49.9592C61.6878 48.3192 63.9421 47.0067 66.483 47.0067C71.0314 47.0067 74.5146 50.861 74.5146 56.4769C74.5146 62.9959 69.9253 67.1764 64.2286 67.1764C62.1801 67.1764 60.0894 66.6852 58.0818 65.4955ZM64.5981 66.5214C67.9573 66.5214 70.4163 63.1596 70.4163 58.1578C70.4163 52.5829 67.8755 49.2211 64.0649 49.2211C62.7529 49.2211 61.4013 49.6304 60.0075 50.5323V62.2987C60.0075 64.3889 61.7696 66.5214 64.5981 66.5214Z" fill="black"/>
<path d="M77.7688 57.4197C77.7688 51.3523 81.8249 46.843 87.4397 46.843C92.1927 46.843 95.2258 49.5895 95.3077 54.2638H81.7021C81.6612 54.5504 81.6612 54.8369 81.6612 55.1235C81.6612 61.0271 84.9399 64.6755 89.12 64.6755C91.7835 64.6755 94.1594 63.2005 95.9215 60.289L96.2092 60.454C94.3653 64.9633 90.6353 67.3402 87.0293 67.3402C81.9477 67.3402 77.7688 63.6099 77.7688 57.4197ZM89.8974 53.6076C90.9639 53.6076 91.1685 53.3197 91.1685 52.2951C91.1685 49.9183 89.8974 47.4992 87.1111 47.4992C84.5294 47.4992 82.1944 49.5076 81.743 53.6076L89.8974 53.6076Z" fill="black"/>
<path d="M97.8971 75.9085C97.8971 74.8838 98.635 74.1047 99.782 74.1047C101.011 74.1047 101.749 75.2535 102.405 75.2535C103.306 75.2535 104.003 74.4335 104.986 71.8917L106.626 67.5461L99.8229 51.3113C98.635 48.6058 97.8971 47.8267 96.2578 47.5811V47.2536H105.438V47.5811C102.773 47.7858 102.815 48.6058 103.429 50.082L108.551 62.5443L112.691 51.5979C113.469 49.5076 113.182 47.8267 110.191 47.5811V47.2536H117.28V47.5811C115.804 47.8267 114.453 49.0164 113.428 51.722L105.683 72.0963C104.33 75.6219 102.938 78 100.52 78C98.7168 78 97.8971 77.0163 97.8971 75.9085Z" fill="black"/>
</svg>
